<?xml version="1.0" encoding="UTF-8" standalone="no"?>
<!-- Created with Inkscape (http://www.inkscape.org/) -->

<svg
   width="48"
   height="48"
   viewBox="0 0 12.7 12.7"
   version="1.1"
   id="svg524"
   inkscape:version="1.2.2 (1:1.2.2+202212051552+b0a8486541)"
   sodipodi:docname="o.svg"
   xmlns:inkscape="http://www.inkscape.org/namespaces/inkscape"
   xmlns:sodipodi="http://sodipodi.sourceforge.net/DTD/sodipodi-0.dtd"
   xmlns="http://www.w3.org/2000/svg"
   xmlns:svg="http://www.w3.org/2000/svg">
  <sodipodi:namedview
     id="namedview526"
     pagecolor="#ffffff"
     bordercolor="#000000"
     borderopacity="0.25"
     inkscape:showpageshadow="2"
     inkscape:pageopacity="0.0"
     inkscape:pagecheckerboard="0"
     inkscape:deskcolor="#d1d1d1"
     inkscape:document-units="mm"
     showgrid="false"
     inkscape:zoom="15.520833"
     inkscape:cx="23.967785"
     inkscape:cy="24"
     inkscape:window-width="2560"
     inkscape:window-height="948"
     inkscape:window-x="0"
     inkscape:window-y="25"
     inkscape:window-maximized="1"
     inkscape:current-layer="layer1" />
  <defs
     id="defs521" />
  <g
     inkscape:label="Layer 1"
     inkscape:groupmode="layer"
     id="layer1">
    <path
       style="fill:#ff7f2a;stroke-width:0.264583"
       id="path589"
       d="M 7.4556794,1.7321941 C 7.3128306,1.6629616 7.1734814,1.5874218 7.0294539,1.5203702 6.7716018,1.3934062 6.483519,1.3420561 6.1975962,1.3376162 6.12253,1.3364505 6.0474851,1.3410714 5.9724295,1.342799 5.7174963,1.3619731 5.462307,1.3959365 5.214312,1.4596372 5.0697209,1.4967773 5.0247743,1.514898 4.8882228,1.5615943 4.5754086,1.6789484 4.2899943,1.8541534 4.0112042,2.0356506 3.7825928,2.1871994 3.5501273,2.3344714 3.3317402,2.5008072 3.281807,2.5388391 3.2333678,2.5787938 3.1841818,2.617787 2.9067823,2.8402587 2.6679924,3.1042213 2.4453664,3.3801319 2.2734294,3.6126547 2.1257262,3.8633262 2.0081698,4.1276571 1.9344791,4.293354 1.9193044,4.3482635 1.8607728,4.5170087 1.7931038,4.7321488 1.7318537,4.9495701 1.688487,5.1710378 1.6630431,5.300976 1.6523641,5.3803772 1.6326514,5.5102685 1.6017232,5.7145647 1.5683789,5.918523 1.5524127,6.1246974 c -0.00996,0.1286182 -0.011852,0.2118297 -0.016604,0.3393721 8.149e-4,0.2701954 0.00967,0.5453189 0.071991,0.8096726 0.014867,0.063069 0.034292,0.1249751 0.051438,0.1874628 0.1250141,0.3659717 0.3088624,0.7103563 0.5166436,1.0357625 0.04357,0.068234 0.08993,0.1346454 0.1348953,0.2019681 0.059404,0.076657 0.1153445,0.1561277 0.178211,0.2299716 0.2506432,0.2944088 0.5464945,0.55284 0.863601,0.7733424 0.060723,0.042224 0.1238875,0.080822 0.1858312,0.1212332 0.190259,0.1060963 0.2317655,0.1379879 0.4464338,0.2175803 0.2113487,0.07836 0.3946282,0.1209 0.6165141,0.167117 0.2934647,0.06113 0.4122426,0.07427 0.7117818,0.118862 0.5557036,0.07578 1.1167261,0.11645 1.6777499,0.09904 0.1236877,-0.0038 0.2471616,-0.01283 0.3707424,-0.01925 0.4397544,-0.04009 0.889635,-0.08382 1.3032007,-0.251182 C 8.9638193,10.03466 9.0032774,9.988243 9.267606,9.8101511 9.3494622,9.7363755 9.4372512,9.6686919 9.513175,9.588824 9.7450278,9.3449271 9.9185161,9.0512288 10.051529,8.7436887 c 0.09244,-0.2137269 0.131003,-0.3484501 0.201573,-0.5656897 0.103845,-0.3720814 0.234396,-0.7390508 0.298486,-1.1211353 0.01486,-0.088587 0.02352,-0.1781038 0.03527,-0.2671554 0.02654,-0.3208956 0.01678,-0.6439786 -0.01733,-0.9639009 C 10.555282,5.6920942 10.53732,5.5764697 10.518105,5.444078 10.460962,5.0869595 10.391683,4.7305621 10.244141,4.3979864 10.200729,4.3001313 10.148276,4.2065429 10.100343,4.1108211 9.8967585,3.7607512 9.6648009,3.424714 9.3890977,3.1270233 9.1926922,2.9149548 9.1407373,2.8804571 8.9222132,2.6910606 8.8505375,2.634783 8.7795752,2.5775848 8.7071863,2.5222278 8.6482517,2.4771597 8.5879706,2.4338801 8.5282819,2.3898155 8.4001429,2.2952182 8.2720232,2.1989027 8.1370767,2.1140302 8.0879518,2.0831339 8.037319,2.0547033 7.98744,2.0250399 7.7600931,1.8928916 7.5064206,1.8253368 7.2563515,1.7520854 7.136517,1.7169829 7.0668355,1.6951654 6.9475738,1.6585453 6.7535813,1.5915794 6.5594142,1.5264143 6.3595882,1.4792128 5.2002909,1.2153407 4.8271194,2.8548346 5.9864167,3.1187067 v 0 c 0.1606661,0.031385 0.3104144,0.1043495 0.4678529,0.1472739 0.1378349,0.042279 0.1990129,0.061515 0.3382565,0.1022927 0.048649,0.014248 0.097409,0.028113 0.1461947,0.041885 0.040331,0.011385 0.1026555,0.026718 0.1442332,0.04244 0.01973,0.00746 0.03868,0.016843 0.05802,0.025265 0.137537,0.076172 0.262406,0.1718242 0.3888494,0.264831 0.04765,0.03505 0.095764,0.069476 0.1429615,0.105133 0.052955,0.040006 0.1049819,0.081226 0.1574728,0.1218393 0.1316612,0.1097455 0.171885,0.1369073 0.2903916,0.2610953 0.187297,0.1962761 0.3422938,0.4208309 0.4851945,0.6505604 0.053583,0.098232 0.090684,0.1566807 0.1288579,0.2588308 0.065435,0.1750983 0.081881,0.364804 0.1195784,0.5465831 0.043534,0.296776 0.08097,0.5955483 0.063904,0.896303 -0.014182,0.13002 -0.015023,0.1720554 -0.044631,0.3012266 -0.014269,0.06225 -0.032148,0.1236218 -0.049097,0.1851964 C 8.7697321,7.2682683 8.710657,7.4659017 8.652278,7.6636505 8.621708,7.7602665 8.572056,7.9245254 8.5329424,8.0218235 8.5124314,8.0728485 8.4880484,8.1222403 8.4644894,8.171932 8.4366074,8.230743 8.3974354,8.313755 8.3566953,8.3682724 c -0.019159,0.025635 -0.042513,0.047849 -0.06377,0.071773 -0.065516,0.055594 -0.094767,0.08732 -0.1745398,0.1254565 -0.1020196,0.048772 -0.2115034,0.075307 -0.3220609,0.096224 -0.1977742,0.037416 -0.3222815,0.045393 -0.525527,0.066139 -0.09894,0.00563 -0.1977785,0.013457 -0.2968189,0.016875 C 6.5005849,8.7610774 6.0272519,8.7272134 5.5582698,8.663579 5.2639089,8.6207353 5.2538296,8.6230025 4.9687466,8.5673797 4.8260063,8.5395296 4.7525011,8.5242576 4.6218009,8.4849487 4.5943422,8.4766911 4.5667009,8.4685552 4.5403994,8.4571365 4.5088749,8.4434496 4.4793262,8.4255974 4.4487896,8.409828 4.4126943,8.3871029 4.3758664,8.3655031 4.3405036,8.3416549 4.240068,8.2739232 4.1628684,8.2143477 4.0695067,8.1350518 3.9843495,8.0627245 3.8846889,7.9719315 3.8095301,7.8880604 3.7730318,7.8473318 3.7405738,7.8031561 3.7060957,7.7607037 3.6739718,7.7133817 3.6408079,7.6667491 3.6097244,7.618737 3.4805934,7.4192796 3.364558,7.2095134 3.2732953,6.9900217 3.2677258,6.9746944 3.2611324,6.9597012 3.2565842,6.94404 3.2186425,6.8133576 3.2214462,6.6595984 3.2161374,6.5248252 c 0.00408,-0.1173943 0.00668,-0.2352524 0.0196,-0.3521218 0.00818,-0.073958 0.026969,-0.1949413 0.037687,-0.2664351 0.00729,-0.048624 0.014629,-0.09724 0.021945,-0.1458601 0.01334,-0.089696 0.022169,-0.1548693 0.038549,-0.24331 C 3.3627123,5.3616293 3.4071372,5.2097206 3.4526333,5.05847 3.4832649,4.9650959 3.4909902,4.9353004 3.5295226,4.8436783 3.5906135,4.698416 3.6703624,4.5616698 3.7579802,4.430963 3.9009058,4.2500915 4.0554801,4.0772889 4.2343387,3.9309407 4.4547504,3.7521388 4.6938072,3.5983097 4.9311086,3.4431226 5.0950063,3.3354279 5.2611041,3.2292205 5.4408813,3.1496026 c 0.037833,-0.013607 0.1087432,-0.04005 0.1487154,-0.050952 0.145638,-0.039723 0.2960068,-0.060138 0.4458459,-0.075604 0.025707,-0.00206 0.051336,-0.00556 0.077117,-0.00615 0.042284,-9.79e-4 0.084568,0.00461 0.1268423,0.00328 0.00403,-1.264e-4 0.00941,6.88e-4 0.011832,-0.00254 0.00169,-0.00225 -0.00729,-0.008 -0.0047,-0.00696 0.027033,0.010819 0.052819,0.024527 0.079229,0.03679 0.1775325,0.080252 0.34388,0.1836761 0.5260988,0.2539973 C 7.9615031,3.7284236 8.5653153,2.1591538 7.455674,1.7321941 Z" />
  </g>
</svg>
