<?xml version="1.0" encoding="UTF-8" standalone="no"?>
<!-- Created with Inkscape (http://www.inkscape.org/) -->

<svg
   width="48"
   height="48"
   viewBox="0 0 12.7 12.7"
   version="1.1"
   id="svg5"
   inkscape:version="1.2.2 (1:1.2.2+202212051552+b0a8486541)"
   sodipodi:docname="x.svg"
   xmlns:inkscape="http://www.inkscape.org/namespaces/inkscape"
   xmlns:sodipodi="http://sodipodi.sourceforge.net/DTD/sodipodi-0.dtd"
   xmlns="http://www.w3.org/2000/svg"
   xmlns:svg="http://www.w3.org/2000/svg">
  <sodipodi:namedview
     id="namedview7"
     pagecolor="#ffffff"
     bordercolor="#000000"
     borderopacity="0.25"
     inkscape:showpageshadow="2"
     inkscape:pageopacity="0.0"
     inkscape:pagecheckerboard="0"
     inkscape:deskcolor="#d1d1d1"
     inkscape:document-units="mm"
     showgrid="false"
     inkscape:zoom="21.090151"
     inkscape:cx="16.927333"
     inkscape:cy="24.869429"
     inkscape:window-width="2560"
     inkscape:window-height="948"
     inkscape:window-x="0"
     inkscape:window-y="25"
     inkscape:window-maximized="1"
     inkscape:current-layer="layer1" />
  <defs
     id="defs2">
    <inkscape:path-effect
       effect="fill_between_many"
       method="originald"
       linkedpaths="#path347,0,1|"
       id="path-effect349" />
  </defs>
  <g
     inkscape:label="Layer 1"
     inkscape:groupmode="layer"
     id="layer1"
     style="display:inline">
    <path
       style="fill:#008000;stroke-width:0.264583"
       id="path230"
       d="m 1.5769778,2.9292878 c 0.3523754,0.7134823 0.7933537,1.3661159 1.3325459,1.9495396 0.059311,0.061606 0.1170736,0.1247413 0.177933,0.1848178 0.078622,0.077611 0.1656453,0.1517502 0.2485245,0.2250152 0.1372529,0.121331 0.2372455,0.2015016 0.1517227,0.132583 0.2758815,0.3634438 0.5365794,0.7363441 0.8371038,1.0801593 0.3155196,0.3512442 0.6662737,0.656704 1.0644073,0.909897 0.1978703,0.098129 0.3384352,0.2761158 0.5009621,0.4200089 0.2337271,0.2069303 0.2825393,0.2365343 0.5274927,0.4215709 0.5241623,0.367388 1.0200176,0.7696504 1.5652384,1.1061941 0.3193444,0.1594191 0.5949355,0.3837815 0.888106,0.5823529 0.2499392,0.2380675 0.5009099,0.4769005 0.805603,0.6450155 0.023551,-0.07958 0.0066,-0.0096 -0.1076266,-0.187138 C 9.636354,10.5388 11.609116,9.5861372 11.541753,9.4466419 v 0 C 11.275808,9.0166789 11.427106,9.1922914 11.111462,8.9003567 11.058381,8.8668195 11.005301,8.833282 10.952221,8.7997444 c -0.01,0.00922 -0.01776,0.033658 -0.02995,0.027644 -0.05192,-0.025633 -0.0832,-0.083539 -0.135138,-0.1091425 -0.01565,-0.00772 0.03144,0.056694 0.0153,0.050063 C 10.69497,8.7241593 10.694778,8.5172716 10.570034,8.5085567 10.24865,8.1859733 9.871835,7.9313269 9.4982666,7.6728819 8.9999046,7.3359141 8.505433,6.9933999 8.0231521,6.6337563 7.6218372,6.3516713 7.215339,6.0804051 6.8624563,5.7359428 6.7785085,5.684213 6.670499,5.6123458 6.5767981,5.5714534 6.5537132,5.5613781 6.5258743,5.5632434 6.5042459,5.5503317 6.3646613,5.4670189 6.2904748,5.3062917 6.1581722,5.2133624 5.8338156,4.8632411 5.587175,4.4495865 5.2659002,4.095778 5.1832012,4.0109102 5.1064368,3.9198248 5.0178035,3.841175 5.0113715,3.8354679 5.0073895,3.8636514 4.9997828,3.8596376 4.9823123,3.8504169 4.805328,3.6814987 4.809513,3.7062044 4.4002388,3.0707914 4.0079054,2.421503 3.5523638,1.8187096 3.4738341,1.6790288 1.498448,2.7896068 1.5769778,2.9292878 Z"
       inkscape:transform-center-x="-4.1435066"
       inkscape:transform-center-y="-0.57459531" />
    <path
       d="M 8.8432718,1.9207836 C 8.0935165,2.5704694 7.4933677,3.3692449 6.8069679,4.0806899 c -0.03607,0.04303 -0.086863,0.077158 -0.1082093,0.1290902 -0.016076,0.039112 0.061912,-0.057671 0.091337,-0.088042 0.013716,-0.014155 -0.029433,0.026225 -0.04415,0.039339 C 6.847161,4.1003693 6.9665145,4.0627884 7.0495929,3.9789555 7.103515,3.9245436 6.9005269,4.0242521 6.837867,4.0683195 6.7080478,4.159619 6.5982677,4.276518 6.4784681,4.3806173 6.3243134,4.5998463 6.0970027,4.7482423 5.934148,4.9582644 5.5157539,5.4978365 5.9569074,4.9783753 5.6719443,5.3085227 5.586351,5.4093713 5.5311415,5.533472 5.4465328,5.6351688 c -0.00859,0.010329 -0.023696,0.012676 -0.035545,0.019013 -0.027993,0.034472 -0.059327,0.066479 -0.083978,0.103414 -0.085337,0.1278594 -0.1350179,0.2275774 -0.20428,0.3582803 -0.01651,0.023188 -0.022974,0.059313 -0.04953,0.069568 -0.015997,0.00618 0.01774,-0.059126 0.00243,-0.051384 -0.036001,0.018217 -0.047673,0.066763 -0.080148,0.090706 -0.011639,0.00858 -0.031698,-0.00815 -0.043383,3.704e-4 C 4.8154298,6.3248039 4.7027136,6.4537362 4.5785071,6.5685651 4.1091828,7.0811527 3.6585726,7.6071639 3.2097916,8.1381464 3.246651,8.0346687 2.978106,8.4090588 3.015366,8.3268009 3.038573,8.2755649 3.104364,8.2495139 3.1221661,8.1961587 c 0.00669,-0.020053 -0.044198,-0.00819 -0.063417,6.085e-4 -0.325805,0.1492562 -0.3717812,0.2142993 -0.6646106,0.442 C 2.0991773,8.9462289 1.7352178,9.2052014 1.5017209,9.5684598 1.3495123,9.8052555 1.3341857,9.8837492 1.2416986,10.133183 1.0347272,10.765777 1.547522,9.7425554 1.281532,10.078593 c -0.082754,0.129431 1.7476802,1.299752 1.8304344,1.17032 v 0 c 0.1218351,-0.134956 0.2580738,-0.653349 0.2260812,-0.42722 0.045788,0.05005 0.00525,0.02396 0.1231902,-0.08475 C 3.6543234,10.558957 3.8458679,10.37933 4.0368921,10.199141 4.1632941,10.095653 4.208885,10.104577 4.3611138,10.011343 4.6201933,9.8526678 4.8568345,9.6600318 5.0738621,9.4486361 5.5239208,8.9689002 5.9351047,8.4560208 6.3590177,7.9533476 6.6306831,7.6566772 6.9405848,7.3851417 7.1207335,7.0182318 7.1364577,6.99366 7.4436128,6.677707 7.5463738,6.5164218 7.7570242,6.2456779 8.0150416,6.0093902 8.1923587,5.7151462 8.0995257,5.792398 8.0121325,5.8767003 7.9138594,5.9469011 7.8731146,5.9760069 7.7344576,6.0357371 7.7780522,6.0111036 8.0439767,5.8608398 8.3134945,5.7497273 8.5479997,5.547429 9.3367785,4.8909639 10.030409,4.1400618 10.638149,3.3121425 10.736534,3.185225 8.9416492,1.7938594 8.8432647,1.9207769 Z"
       id="path351"
       inkscape:transform-center-x="-3.5010297"
       inkscape:transform-center-y="-0.18536241"
       inkscape:original-d="M 0,0"
       inkscape:path-effect="#path-effect349"
       class="UnoptimicedTransforms" />
    <path
       style="fill:#008000;stroke-width:0.264583"
       d="M 8.8432718,1.9207836 C 8.0935165,2.5704694 7.4933677,3.3692449 6.8069679,4.0806899 c -0.03607,0.04303 -0.086863,0.077158 -0.1082093,0.1290902 -0.016076,0.039112 0.061912,-0.057671 0.091337,-0.088042 0.013716,-0.014155 -0.029433,0.026225 -0.04415,0.039339 C 6.847161,4.1003693 6.9665145,4.0627884 7.0495929,3.9789555 7.103515,3.9245436 6.9005269,4.0242521 6.837867,4.0683195 6.7080478,4.159619 6.5982677,4.276518 6.4784681,4.3806173 6.3243134,4.5998463 6.0970027,4.7482423 5.934148,4.9582644 5.5157539,5.4978365 5.9569074,4.9783753 5.6719443,5.3085227 5.586351,5.4093713 5.5311415,5.533472 5.4465328,5.6351688 c -0.00859,0.010329 -0.023696,0.012676 -0.035545,0.019013 -0.027993,0.034472 -0.059327,0.066479 -0.083978,0.103414 -0.085337,0.1278594 -0.1350179,0.2275774 -0.20428,0.3582803 -0.01651,0.023188 -0.022974,0.059313 -0.04953,0.069568 -0.015997,0.00618 0.01774,-0.059126 0.00243,-0.051384 -0.036001,0.018217 -0.047673,0.066763 -0.080148,0.090706 -0.011639,0.00858 -0.031698,-0.00815 -0.043383,3.704e-4 C 4.8154298,6.3248039 4.7027136,6.4537362 4.5785071,6.5685651 4.1091828,7.0811527 3.6585726,7.6071639 3.2097916,8.1381464 3.246651,8.0346687 2.978106,8.4090588 3.015366,8.3268009 3.038573,8.2755649 3.104364,8.2495139 3.1221661,8.1961587 c 0.00669,-0.020053 -0.044198,-0.00819 -0.063417,6.085e-4 -0.325805,0.1492562 -0.3717812,0.2142993 -0.6646106,0.442 C 2.0991773,8.9462289 1.7352178,9.2052014 1.5017209,9.5684598 1.3495123,9.8052555 1.3341857,9.8837492 1.2416986,10.133183 1.0347272,10.765777 1.547522,9.7425554 1.281532,10.078593 c -0.082754,0.129431 1.7476802,1.299752 1.8304344,1.17032 v 0 c 0.1218351,-0.134956 0.2580738,-0.653349 0.2260812,-0.42722 0.045788,0.05005 0.00525,0.02396 0.1231902,-0.08475 C 3.6543234,10.558957 3.8458679,10.37933 4.0368921,10.199141 4.1632941,10.095653 4.208885,10.104577 4.3611138,10.011343 4.6201933,9.8526678 4.8568345,9.6600318 5.0738621,9.4486361 5.5239208,8.9689002 5.9351047,8.4560208 6.3590177,7.9533476 6.6306831,7.6566772 6.9405848,7.3851417 7.1207335,7.0182318 7.1364577,6.99366 7.4436128,6.677707 7.5463738,6.5164218 7.7570242,6.2456779 8.0150416,6.0093902 8.1923587,5.7151462 8.0995257,5.792398 8.0121325,5.8767003 7.9138594,5.9469011 7.8731146,5.9760069 7.7344576,6.0357371 7.7780522,6.0111036 8.0439767,5.8608398 8.3134945,5.7497273 8.5479997,5.547429 9.3367785,4.8909639 10.030409,4.1400618 10.638149,3.3121425 10.736534,3.185225 8.9416492,1.7938594 8.8432647,1.9207769 Z"
       id="path347"
       class="UnoptimicedTransforms"
       inkscape:transform-center-x="-3.5010297"
       inkscape:transform-center-y="-0.18536241" />
  </g>
</svg>
